<mxfile host="app.diagrams.net" agent="Mozilla/5.0 (Windows NT 10.0; Win64; x64) AppleWebKit/537.36 (KHTML, like Gecko) Chrome/141.0.0.0 Safari/537.36" version="28.2.5">
  <diagram name="Page-1" id="cdMoMALlZJhh0rMfwUI2">
    <mxGraphModel dx="2755" dy="1024" grid="0" gridSize="10" guides="1" tooltips="1" connect="1" arrows="1" fold="1" page="0" pageScale="1" pageWidth="850" pageHeight="1100" math="0" shadow="0">
      <root>
        <mxCell id="0" />
        <mxCell id="1" parent="0" />
        <mxCell id="Nxj7P1FDlBH2-qxjAzaY-1" value="DEPARTMENT USER INTERFACES" style="shape=cube;whiteSpace=wrap;html=1;boundedLbl=1;backgroundOutline=1;darkOpacity=0.05;darkOpacity2=0.1;fillColor=#dae8fc;strokeColor=#6c8ebf;" parent="1" vertex="1">
          <mxGeometry x="440" y="5" width="160" height="105" as="geometry" />
        </mxCell>
        <mxCell id="Nxj7P1FDlBH2-qxjAzaY-17" value="" style="shape=partialRectangle;whiteSpace=wrap;html=1;bottom=0;right=0;fillColor=#dae8fc;strokeColor=default;" parent="1" vertex="1">
          <mxGeometry x="400" y="450" width="240" height="60" as="geometry" />
        </mxCell>
        <mxCell id="Nxj7P1FDlBH2-qxjAzaY-18" value="" style="endArrow=none;html=1;rounded=0;exitX=0;exitY=1;exitDx=0;exitDy=0;entryX=1;entryY=1;entryDx=0;entryDy=0;" parent="1" source="Nxj7P1FDlBH2-qxjAzaY-17" target="Nxj7P1FDlBH2-qxjAzaY-17" edge="1">
          <mxGeometry width="50" height="50" relative="1" as="geometry">
            <mxPoint x="400" y="480" as="sourcePoint" />
            <mxPoint x="450" y="430" as="targetPoint" />
          </mxGeometry>
        </mxCell>
        <mxCell id="Nxj7P1FDlBH2-qxjAzaY-19" value="" style="endArrow=none;html=1;rounded=0;exitX=0.25;exitY=1;exitDx=0;exitDy=0;entryX=0.25;entryY=0;entryDx=0;entryDy=0;" parent="1" source="Nxj7P1FDlBH2-qxjAzaY-17" target="Nxj7P1FDlBH2-qxjAzaY-17" edge="1">
          <mxGeometry width="50" height="50" relative="1" as="geometry">
            <mxPoint x="400" y="480" as="sourcePoint" />
            <mxPoint x="450" y="430" as="targetPoint" />
          </mxGeometry>
        </mxCell>
        <mxCell id="Nxj7P1FDlBH2-qxjAzaY-20" value="D1" style="text;html=1;align=center;verticalAlign=middle;whiteSpace=wrap;rounded=0;" parent="1" vertex="1">
          <mxGeometry x="415" y="465" width="20" height="25" as="geometry" />
        </mxCell>
        <mxCell id="Nxj7P1FDlBH2-qxjAzaY-21" value="PRODUCTION DATA DATABASE" style="text;html=1;align=center;verticalAlign=middle;whiteSpace=wrap;rounded=0;" parent="1" vertex="1">
          <mxGeometry x="485" y="462.5" width="121" height="30" as="geometry" />
        </mxCell>
        <mxCell id="Nxj7P1FDlBH2-qxjAzaY-23" value="VIEW PRODUCTION RECORDS" style="rounded=1;whiteSpace=wrap;html=1;fillColor=#dae8fc;strokeColor=default;" parent="1" vertex="1">
          <mxGeometry x="770" y="200" width="80" height="120" as="geometry" />
        </mxCell>
        <mxCell id="Nxj7P1FDlBH2-qxjAzaY-24" value="" style="endArrow=none;html=1;rounded=0;entryX=1;entryY=0.25;entryDx=0;entryDy=0;exitX=0;exitY=0.25;exitDx=0;exitDy=0;" parent="1" source="Nxj7P1FDlBH2-qxjAzaY-23" target="Nxj7P1FDlBH2-qxjAzaY-23" edge="1">
          <mxGeometry width="50" height="50" relative="1" as="geometry">
            <mxPoint x="510" y="290" as="sourcePoint" />
            <mxPoint x="560" y="240" as="targetPoint" />
          </mxGeometry>
        </mxCell>
        <mxCell id="Nxj7P1FDlBH2-qxjAzaY-25" value="&lt;font style=&quot;font-size: 11px;&quot;&gt;MODIFY PRODUCTION RECORDS&lt;/font&gt;" style="rounded=1;whiteSpace=wrap;html=1;fillColor=#dae8fc;strokeColor=default;" parent="1" vertex="1">
          <mxGeometry x="200" y="200" width="80" height="120" as="geometry" />
        </mxCell>
        <mxCell id="Nxj7P1FDlBH2-qxjAzaY-26" value="" style="endArrow=none;html=1;rounded=0;entryX=1;entryY=0.25;entryDx=0;entryDy=0;exitX=0;exitY=0.25;exitDx=0;exitDy=0;" parent="1" source="Nxj7P1FDlBH2-qxjAzaY-25" target="Nxj7P1FDlBH2-qxjAzaY-25" edge="1">
          <mxGeometry width="50" height="50" relative="1" as="geometry">
            <mxPoint x="-62.5" y="290" as="sourcePoint" />
            <mxPoint x="-12.5" y="240" as="targetPoint" />
          </mxGeometry>
        </mxCell>
        <mxCell id="Nxj7P1FDlBH2-qxjAzaY-27" value="2" style="text;html=1;align=center;verticalAlign=middle;whiteSpace=wrap;rounded=0;" parent="1" vertex="1">
          <mxGeometry x="795" y="200" width="30" height="30" as="geometry" />
        </mxCell>
        <mxCell id="Nxj7P1FDlBH2-qxjAzaY-28" value="3" style="text;html=1;align=center;verticalAlign=middle;whiteSpace=wrap;rounded=0;" parent="1" vertex="1">
          <mxGeometry x="222.5" y="200" width="30" height="30" as="geometry" />
        </mxCell>
        <mxCell id="Nxj7P1FDlBH2-qxjAzaY-30" value="Team 2 Production Data Information System LVL 1 DFD" style="text;html=1;align=center;verticalAlign=middle;whiteSpace=wrap;rounded=0;" parent="1" vertex="1">
          <mxGeometry x="-35" y="20" width="190" height="30" as="geometry" />
        </mxCell>
        <mxCell id="Nxj7P1FDlBH2-qxjAzaY-68" value="SQL SELECT QUERY&lt;div&gt;(READ REQUESTS)&lt;/div&gt;" style="text;html=1;align=center;verticalAlign=middle;whiteSpace=wrap;rounded=0;" parent="1" vertex="1">
          <mxGeometry x="655" y="432.5" width="130" height="30" as="geometry" />
        </mxCell>
        <mxCell id="Nxj7P1FDlBH2-qxjAzaY-69" value="SQL SELECT QUERY RESULTS&lt;div&gt;(READ ACKNOWLEDGEMENTS)&lt;/div&gt;" style="text;html=1;align=center;verticalAlign=middle;whiteSpace=wrap;rounded=0;" parent="1" vertex="1">
          <mxGeometry x="615" y="470" width="240" height="25" as="geometry" />
        </mxCell>
        <mxCell id="Nxj7P1FDlBH2-qxjAzaY-72" value="WO C/U/D REQUEST" style="text;html=1;align=center;verticalAlign=middle;whiteSpace=wrap;rounded=0;" parent="1" vertex="1">
          <mxGeometry x="320" y="200" width="150" height="30" as="geometry" />
        </mxCell>
        <mxCell id="Nxj7P1FDlBH2-qxjAzaY-74" value="INSERT, UPDATE, DELETE QUERY" style="text;html=1;align=center;verticalAlign=middle;whiteSpace=wrap;rounded=0;" parent="1" vertex="1">
          <mxGeometry x="240" y="432.5" width="150" height="30" as="geometry" />
        </mxCell>
        <mxCell id="EVzp1jTrWOV214xl3vIC-22" value="" style="shape=partialRectangle;whiteSpace=wrap;html=1;bottom=0;right=0;fillColor=#dae8fc;strokeColor=default;" parent="1" vertex="1">
          <mxGeometry x="840" y="800" width="240" height="60" as="geometry" />
        </mxCell>
        <mxCell id="EVzp1jTrWOV214xl3vIC-23" value="" style="endArrow=none;html=1;rounded=0;exitX=0;exitY=1;exitDx=0;exitDy=0;entryX=1;entryY=1;entryDx=0;entryDy=0;" parent="1" source="EVzp1jTrWOV214xl3vIC-22" target="EVzp1jTrWOV214xl3vIC-22" edge="1">
          <mxGeometry width="50" height="50" relative="1" as="geometry">
            <mxPoint x="840" y="830" as="sourcePoint" />
            <mxPoint x="890" y="780" as="targetPoint" />
          </mxGeometry>
        </mxCell>
        <mxCell id="EVzp1jTrWOV214xl3vIC-24" value="" style="endArrow=none;html=1;rounded=0;exitX=0.25;exitY=1;exitDx=0;exitDy=0;entryX=0.25;entryY=0;entryDx=0;entryDy=0;" parent="1" source="EVzp1jTrWOV214xl3vIC-22" target="EVzp1jTrWOV214xl3vIC-22" edge="1">
          <mxGeometry width="50" height="50" relative="1" as="geometry">
            <mxPoint x="840" y="830" as="sourcePoint" />
            <mxPoint x="890" y="780" as="targetPoint" />
          </mxGeometry>
        </mxCell>
        <mxCell id="EVzp1jTrWOV214xl3vIC-25" value="D3" style="text;html=1;align=center;verticalAlign=middle;whiteSpace=wrap;rounded=0;" parent="1" vertex="1">
          <mxGeometry x="855" y="815" width="20" height="25" as="geometry" />
        </mxCell>
        <mxCell id="EVzp1jTrWOV214xl3vIC-26" value="AUDIT LOG" style="text;html=1;align=center;verticalAlign=middle;whiteSpace=wrap;rounded=0;" parent="1" vertex="1">
          <mxGeometry x="920" y="815" width="80" height="30" as="geometry" />
        </mxCell>
        <mxCell id="RLrWu1JvO4jrma6WL3sS-4" value="SEARCH CRITERIA" style="text;html=1;align=center;verticalAlign=middle;whiteSpace=wrap;rounded=0;" parent="1" vertex="1">
          <mxGeometry x="606" y="205" width="120" height="30" as="geometry" />
        </mxCell>
        <mxCell id="RLrWu1JvO4jrma6WL3sS-5" value="SEARCH RESULTS" style="text;html=1;align=center;verticalAlign=middle;whiteSpace=wrap;rounded=0;" parent="1" vertex="1">
          <mxGeometry x="601" y="235" width="130" height="30" as="geometry" />
        </mxCell>
        <mxCell id="RLrWu1JvO4jrma6WL3sS-18" value="RECORDED&amp;nbsp;&lt;div&gt;C/U/D TRANSACTIONS&lt;/div&gt;" style="text;html=1;align=center;verticalAlign=middle;whiteSpace=wrap;rounded=0;" parent="1" vertex="1">
          <mxGeometry x="-55" y="265" width="130" height="50" as="geometry" />
        </mxCell>
        <mxCell id="RLrWu1JvO4jrma6WL3sS-21" value="AUDIT LOGGING" style="rounded=1;whiteSpace=wrap;html=1;fillColor=#dae8fc;strokeColor=default;" parent="1" vertex="1">
          <mxGeometry x="-80" y="680" width="80" height="120" as="geometry" />
        </mxCell>
        <mxCell id="RLrWu1JvO4jrma6WL3sS-22" value="" style="endArrow=none;html=1;rounded=0;entryX=1;entryY=0.25;entryDx=0;entryDy=0;exitX=0;exitY=0.25;exitDx=0;exitDy=0;" parent="1" source="RLrWu1JvO4jrma6WL3sS-21" target="RLrWu1JvO4jrma6WL3sS-21" edge="1">
          <mxGeometry width="50" height="50" relative="1" as="geometry">
            <mxPoint x="-340" y="770" as="sourcePoint" />
            <mxPoint x="-290" y="720" as="targetPoint" />
          </mxGeometry>
        </mxCell>
        <mxCell id="RLrWu1JvO4jrma6WL3sS-23" value="4" style="text;html=1;align=center;verticalAlign=middle;whiteSpace=wrap;rounded=0;" parent="1" vertex="1">
          <mxGeometry x="-55" y="680" width="30" height="30" as="geometry" />
        </mxCell>
        <mxCell id="RLrWu1JvO4jrma6WL3sS-24" value="USER AUTH &amp;amp;&amp;nbsp;&lt;div&gt;ROLE AUTH&lt;/div&gt;" style="rounded=1;whiteSpace=wrap;html=1;fillColor=#dae8fc;strokeColor=default;" parent="1" vertex="1">
          <mxGeometry x="875" y="5" width="80" height="120" as="geometry" />
        </mxCell>
        <mxCell id="RLrWu1JvO4jrma6WL3sS-25" value="" style="endArrow=none;html=1;rounded=0;entryX=1;entryY=0.25;entryDx=0;entryDy=0;exitX=0;exitY=0.25;exitDx=0;exitDy=0;" parent="1" source="RLrWu1JvO4jrma6WL3sS-24" target="RLrWu1JvO4jrma6WL3sS-24" edge="1">
          <mxGeometry width="50" height="50" relative="1" as="geometry">
            <mxPoint x="725" y="-65" as="sourcePoint" />
            <mxPoint x="775" y="-115" as="targetPoint" />
          </mxGeometry>
        </mxCell>
        <mxCell id="RLrWu1JvO4jrma6WL3sS-26" value="1" style="text;html=1;align=center;verticalAlign=middle;whiteSpace=wrap;rounded=0;" parent="1" vertex="1">
          <mxGeometry x="900" y="5" width="30" height="30" as="geometry" />
        </mxCell>
        <mxCell id="RLrWu1JvO4jrma6WL3sS-29" value="AUDIT LOG UPDATES" style="text;html=1;align=center;verticalAlign=middle;whiteSpace=wrap;rounded=0;" parent="1" vertex="1">
          <mxGeometry x="-35" y="920" width="60" height="30" as="geometry" />
        </mxCell>
        <mxCell id="RLrWu1JvO4jrma6WL3sS-34" value="DEPARTMENT MANAGER USER AUTHENTICATION" style="text;html=1;align=center;verticalAlign=middle;whiteSpace=wrap;rounded=0;" parent="1" vertex="1">
          <mxGeometry x="630" y="5" width="190" height="30" as="geometry" />
        </mxCell>
        <mxCell id="RLrWu1JvO4jrma6WL3sS-35" value="AUTHENTICATION SUCCESS&lt;div&gt;ACCESS APPROVAL&lt;/div&gt;" style="text;html=1;align=center;verticalAlign=middle;whiteSpace=wrap;rounded=0;" parent="1" vertex="1">
          <mxGeometry x="625" y="50" width="190" height="30" as="geometry" />
        </mxCell>
        <mxCell id="RLrWu1JvO4jrma6WL3sS-36" value="VERIFY USER &amp;amp; ROLE" style="text;html=1;align=center;verticalAlign=middle;whiteSpace=wrap;rounded=0;" parent="1" vertex="1">
          <mxGeometry x="1010" y="5" width="130" height="30" as="geometry" />
        </mxCell>
        <mxCell id="RLrWu1JvO4jrma6WL3sS-37" value="USER APPROVED &amp;amp; ROLE ACCESS GRANTED" style="text;html=1;align=center;verticalAlign=middle;whiteSpace=wrap;rounded=0;" parent="1" vertex="1">
          <mxGeometry x="1010" y="42.5" width="130" height="30" as="geometry" />
        </mxCell>
        <mxCell id="RLrWu1JvO4jrma6WL3sS-38" value="" style="endArrow=classic;html=1;rounded=0;exitX=0.5;exitY=1;exitDx=0;exitDy=0;entryX=0;entryY=0;entryDx=0;entryDy=30;entryPerimeter=0;" parent="1" source="RLrWu1JvO4jrma6WL3sS-39" edge="1" target="RLrWu1JvO4jrma6WL3sS-58">
          <mxGeometry width="50" height="50" relative="1" as="geometry">
            <mxPoint x="300" y="989.5" as="sourcePoint" />
            <mxPoint x="400" y="989" as="targetPoint" />
            <Array as="points">
              <mxPoint x="280" y="830" />
            </Array>
          </mxGeometry>
        </mxCell>
        <mxCell id="RLrWu1JvO4jrma6WL3sS-39" value="BACKUP &amp;amp; RESTORE SCHEDULER" style="rounded=1;whiteSpace=wrap;html=1;fillColor=#dae8fc;strokeColor=default;" parent="1" vertex="1">
          <mxGeometry x="240" y="680" width="80" height="120" as="geometry" />
        </mxCell>
        <mxCell id="RLrWu1JvO4jrma6WL3sS-40" value="" style="endArrow=none;html=1;rounded=0;entryX=1;entryY=0.25;entryDx=0;entryDy=0;exitX=0;exitY=0.25;exitDx=0;exitDy=0;" parent="1" source="RLrWu1JvO4jrma6WL3sS-39" target="RLrWu1JvO4jrma6WL3sS-39" edge="1">
          <mxGeometry width="50" height="50" relative="1" as="geometry">
            <mxPoint x="-20" y="770" as="sourcePoint" />
            <mxPoint x="30" y="720" as="targetPoint" />
          </mxGeometry>
        </mxCell>
        <mxCell id="RLrWu1JvO4jrma6WL3sS-41" value="6" style="text;html=1;align=center;verticalAlign=middle;whiteSpace=wrap;rounded=0;" parent="1" vertex="1">
          <mxGeometry x="265" y="680" width="30" height="30" as="geometry" />
        </mxCell>
        <mxCell id="RLrWu1JvO4jrma6WL3sS-42" value="" style="endArrow=classic;html=1;rounded=0;entryX=0.5;entryY=0;entryDx=0;entryDy=0;" parent="1" target="RLrWu1JvO4jrma6WL3sS-41" edge="1">
          <mxGeometry width="50" height="50" relative="1" as="geometry">
            <mxPoint x="520" y="510" as="sourcePoint" />
            <mxPoint x="290" y="730" as="targetPoint" />
            <Array as="points">
              <mxPoint x="520" y="600" />
              <mxPoint x="280" y="600" />
            </Array>
          </mxGeometry>
        </mxCell>
        <mxCell id="RLrWu1JvO4jrma6WL3sS-43" value="DB IMAGE WITH BACK UP DATA" style="text;html=1;align=center;verticalAlign=middle;whiteSpace=wrap;rounded=0;" parent="1" vertex="1">
          <mxGeometry x="277.5" y="610" width="110" height="30" as="geometry" />
        </mxCell>
        <mxCell id="RLrWu1JvO4jrma6WL3sS-44" value="DB BACKUP FILE" style="text;html=1;align=center;verticalAlign=middle;whiteSpace=wrap;rounded=0;" parent="1" vertex="1">
          <mxGeometry x="282.5" y="800" width="105" height="30" as="geometry" />
        </mxCell>
        <mxCell id="RLrWu1JvO4jrma6WL3sS-45" value="DATA MIGRATION UTILITY" style="rounded=1;whiteSpace=wrap;html=1;fillColor=#dae8fc;strokeColor=default;" parent="1" vertex="1">
          <mxGeometry x="80" y="680" width="80" height="120" as="geometry" />
        </mxCell>
        <mxCell id="RLrWu1JvO4jrma6WL3sS-46" value="" style="endArrow=none;html=1;rounded=0;entryX=1;entryY=0.25;entryDx=0;entryDy=0;exitX=0;exitY=0.25;exitDx=0;exitDy=0;" parent="1" source="RLrWu1JvO4jrma6WL3sS-45" target="RLrWu1JvO4jrma6WL3sS-45" edge="1">
          <mxGeometry width="50" height="50" relative="1" as="geometry">
            <mxPoint x="-180" y="770" as="sourcePoint" />
            <mxPoint x="-130" y="720" as="targetPoint" />
          </mxGeometry>
        </mxCell>
        <mxCell id="RLrWu1JvO4jrma6WL3sS-47" value="5" style="text;html=1;align=center;verticalAlign=middle;whiteSpace=wrap;rounded=0;" parent="1" vertex="1">
          <mxGeometry x="105" y="680" width="30" height="30" as="geometry" />
        </mxCell>
        <mxCell id="RLrWu1JvO4jrma6WL3sS-48" value="" style="shape=partialRectangle;whiteSpace=wrap;html=1;bottom=0;right=0;fillColor=#dae8fc;strokeColor=default;" parent="1" vertex="1">
          <mxGeometry x="560" y="800" width="240" height="60" as="geometry" />
        </mxCell>
        <mxCell id="RLrWu1JvO4jrma6WL3sS-49" value="" style="endArrow=none;html=1;rounded=0;exitX=0;exitY=1;exitDx=0;exitDy=0;entryX=1;entryY=1;entryDx=0;entryDy=0;" parent="1" source="RLrWu1JvO4jrma6WL3sS-48" target="RLrWu1JvO4jrma6WL3sS-48" edge="1">
          <mxGeometry width="50" height="50" relative="1" as="geometry">
            <mxPoint x="560" y="830" as="sourcePoint" />
            <mxPoint x="610" y="780" as="targetPoint" />
          </mxGeometry>
        </mxCell>
        <mxCell id="RLrWu1JvO4jrma6WL3sS-50" value="" style="endArrow=none;html=1;rounded=0;exitX=0.25;exitY=1;exitDx=0;exitDy=0;entryX=0.25;entryY=0;entryDx=0;entryDy=0;" parent="1" source="RLrWu1JvO4jrma6WL3sS-48" target="RLrWu1JvO4jrma6WL3sS-48" edge="1">
          <mxGeometry width="50" height="50" relative="1" as="geometry">
            <mxPoint x="560" y="830" as="sourcePoint" />
            <mxPoint x="610" y="780" as="targetPoint" />
          </mxGeometry>
        </mxCell>
        <mxCell id="RLrWu1JvO4jrma6WL3sS-51" value="D2" style="text;html=1;align=center;verticalAlign=middle;whiteSpace=wrap;rounded=0;" parent="1" vertex="1">
          <mxGeometry x="575" y="815" width="20" height="25" as="geometry" />
        </mxCell>
        <mxCell id="RLrWu1JvO4jrma6WL3sS-52" value="LEGACY DATA SOURCE" style="text;html=1;align=center;verticalAlign=middle;whiteSpace=wrap;rounded=0;" parent="1" vertex="1">
          <mxGeometry x="660" y="812.5" width="100" height="30" as="geometry" />
        </mxCell>
        <mxCell id="RLrWu1JvO4jrma6WL3sS-53" value="" style="endArrow=classic;html=1;rounded=0;entryX=0.5;entryY=1;entryDx=0;entryDy=0;" parent="1" target="RLrWu1JvO4jrma6WL3sS-45" edge="1">
          <mxGeometry width="50" height="50" relative="1" as="geometry">
            <mxPoint x="680" y="860" as="sourcePoint" />
            <mxPoint x="430" y="830" as="targetPoint" />
            <Array as="points">
              <mxPoint x="680" y="920" />
              <mxPoint x="120" y="920" />
            </Array>
          </mxGeometry>
        </mxCell>
        <mxCell id="RLrWu1JvO4jrma6WL3sS-54" value="CSV EXPORT FILE" style="text;html=1;align=center;verticalAlign=middle;whiteSpace=wrap;rounded=0;" parent="1" vertex="1">
          <mxGeometry x="117.5" y="890" width="105" height="30" as="geometry" />
        </mxCell>
        <mxCell id="RLrWu1JvO4jrma6WL3sS-55" value="" style="endArrow=classic;html=1;rounded=0;exitX=0.5;exitY=0;exitDx=0;exitDy=0;" parent="1" source="RLrWu1JvO4jrma6WL3sS-45" edge="1">
          <mxGeometry width="50" height="50" relative="1" as="geometry">
            <mxPoint x="130" y="580" as="sourcePoint" />
            <mxPoint x="490" y="510" as="targetPoint" />
            <Array as="points">
              <mxPoint x="120" y="580" />
              <mxPoint x="490" y="580" />
            </Array>
          </mxGeometry>
        </mxCell>
        <mxCell id="RLrWu1JvO4jrma6WL3sS-56" value="IMPORTED CSV FILE" style="text;html=1;align=center;verticalAlign=middle;whiteSpace=wrap;rounded=0;" parent="1" vertex="1">
          <mxGeometry x="130" y="610" width="60" height="30" as="geometry" />
        </mxCell>
        <mxCell id="RLrWu1JvO4jrma6WL3sS-58" value="BACKUP ARCHIVE" style="shape=cube;whiteSpace=wrap;html=1;boundedLbl=1;backgroundOutline=1;darkOpacity=0.05;darkOpacity2=0.1;fillColor=#dae8fc;strokeColor=#6c8ebf;" parent="1" vertex="1">
          <mxGeometry x="400" y="800" width="120" height="80" as="geometry" />
        </mxCell>
        <mxCell id="JNdVRmHCv1PeEYN5Xjip-2" value="INSERT, UPDATE, DELETE QUERY SUCCESS" style="text;html=1;align=center;verticalAlign=middle;whiteSpace=wrap;rounded=0;" vertex="1" parent="1">
          <mxGeometry x="222.5" y="465" width="160" height="30" as="geometry" />
        </mxCell>
        <mxCell id="JNdVRmHCv1PeEYN5Xjip-4" value="&lt;span style=&quot;color: rgb(0, 0, 0); font-family: Helvetica; font-size: 12px; font-style: normal; font-variant-ligatures: normal; font-variant-caps: normal; font-weight: 400; letter-spacing: normal; orphans: 2; text-align: center; text-indent: 0px; text-transform: none; widows: 2; word-spacing: 0px; -webkit-text-stroke-width: 0px; white-space: normal; text-decoration-thickness: initial; text-decoration-style: initial; text-decoration-color: initial; float: none; background-color: rgb(254, 254, 254); display: inline !important;&quot;&gt;WO C/U/D ACKNOWLEDGEMENTS&lt;/span&gt;" style="text;whiteSpace=wrap;html=1;" vertex="1" parent="1">
          <mxGeometry x="290" y="235" width="210" height="40" as="geometry" />
        </mxCell>
        <mxCell id="JNdVRmHCv1PeEYN5Xjip-6" value="INPUT VALIDATION ERROR MESSAGE" style="text;html=1;align=center;verticalAlign=middle;whiteSpace=wrap;rounded=0;" vertex="1" parent="1">
          <mxGeometry x="280" y="265" width="230" height="30" as="geometry" />
        </mxCell>
        <mxCell id="JNdVRmHCv1PeEYN5Xjip-9" value="INPUT VALIDATION ERROR MESSAGE" style="text;html=1;align=center;verticalAlign=middle;whiteSpace=wrap;rounded=0;" vertex="1" parent="1">
          <mxGeometry x="540" y="265" width="230" height="30" as="geometry" />
        </mxCell>
        <mxCell id="JNdVRmHCv1PeEYN5Xjip-13" value="" style="endArrow=classic;html=1;rounded=0;" edge="1" parent="1">
          <mxGeometry width="50" height="50" relative="1" as="geometry">
            <mxPoint x="-40.5" y="800" as="sourcePoint" />
            <mxPoint x="960" y="860" as="targetPoint" />
            <Array as="points">
              <mxPoint x="-40" y="960" />
              <mxPoint x="960" y="960" />
            </Array>
          </mxGeometry>
        </mxCell>
        <mxCell id="JNdVRmHCv1PeEYN5Xjip-14" value="" style="endArrow=classic;html=1;rounded=0;" edge="1" parent="1">
          <mxGeometry width="50" height="50" relative="1" as="geometry">
            <mxPoint x="480" y="110" as="sourcePoint" />
            <mxPoint x="280" y="229" as="targetPoint" />
            <Array as="points">
              <mxPoint x="480" y="229" />
            </Array>
          </mxGeometry>
        </mxCell>
        <mxCell id="JNdVRmHCv1PeEYN5Xjip-15" value="" style="endArrow=classic;html=1;rounded=0;" edge="1" parent="1">
          <mxGeometry width="50" height="50" relative="1" as="geometry">
            <mxPoint x="280" y="260" as="sourcePoint" />
            <mxPoint x="500" y="110" as="targetPoint" />
            <Array as="points">
              <mxPoint x="500" y="260" />
            </Array>
          </mxGeometry>
        </mxCell>
        <mxCell id="JNdVRmHCv1PeEYN5Xjip-16" value="" style="endArrow=classic;html=1;rounded=0;exitX=1;exitY=0.75;exitDx=0;exitDy=0;" edge="1" parent="1" source="Nxj7P1FDlBH2-qxjAzaY-25">
          <mxGeometry width="50" height="50" relative="1" as="geometry">
            <mxPoint x="519.31" y="190" as="sourcePoint" />
            <mxPoint x="519.31" y="110" as="targetPoint" />
            <Array as="points">
              <mxPoint x="520" y="290" />
            </Array>
          </mxGeometry>
        </mxCell>
        <mxCell id="JNdVRmHCv1PeEYN5Xjip-17" value="" style="endArrow=classic;html=1;rounded=0;entryX=0;entryY=0.25;entryDx=0;entryDy=0;exitX=0.75;exitY=1;exitDx=0;exitDy=0;" edge="1" parent="1" source="Nxj7P1FDlBH2-qxjAzaY-25" target="Nxj7P1FDlBH2-qxjAzaY-17">
          <mxGeometry width="50" height="50" relative="1" as="geometry">
            <mxPoint x="230" y="340" as="sourcePoint" />
            <mxPoint x="280" y="290" as="targetPoint" />
            <Array as="points">
              <mxPoint x="260" y="465" />
            </Array>
          </mxGeometry>
        </mxCell>
        <mxCell id="JNdVRmHCv1PeEYN5Xjip-18" value="" style="endArrow=classic;html=1;rounded=0;exitX=0;exitY=0.75;exitDx=0;exitDy=0;" edge="1" parent="1" source="Nxj7P1FDlBH2-qxjAzaY-17">
          <mxGeometry width="50" height="50" relative="1" as="geometry">
            <mxPoint x="222.5" y="380" as="sourcePoint" />
            <mxPoint x="222.5" y="320" as="targetPoint" />
            <Array as="points">
              <mxPoint x="223" y="495" />
            </Array>
          </mxGeometry>
        </mxCell>
        <mxCell id="JNdVRmHCv1PeEYN5Xjip-19" value="" style="endArrow=classic;html=1;rounded=0;exitX=0;exitY=0.5;exitDx=0;exitDy=0;" edge="1" parent="1" source="Nxj7P1FDlBH2-qxjAzaY-25">
          <mxGeometry width="50" height="50" relative="1" as="geometry">
            <mxPoint x="-40.34" y="590" as="sourcePoint" />
            <mxPoint x="-40.34" y="680" as="targetPoint" />
            <Array as="points">
              <mxPoint x="-40" y="260" />
            </Array>
          </mxGeometry>
        </mxCell>
        <mxCell id="JNdVRmHCv1PeEYN5Xjip-20" value="" style="endArrow=classic;html=1;rounded=0;exitX=0.873;exitY=1.015;exitDx=0;exitDy=0;exitPerimeter=0;entryX=0;entryY=0.25;entryDx=0;entryDy=0;" edge="1" parent="1" target="Nxj7P1FDlBH2-qxjAzaY-23">
          <mxGeometry width="50" height="50" relative="1" as="geometry">
            <mxPoint x="579.6799999999998" y="110.00500000000005" as="sourcePoint" />
            <mxPoint x="760" y="228.43" as="targetPoint" />
            <Array as="points">
              <mxPoint x="580" y="230" />
            </Array>
          </mxGeometry>
        </mxCell>
        <mxCell id="JNdVRmHCv1PeEYN5Xjip-21" value="" style="endArrow=classic;html=1;rounded=0;exitX=0;exitY=0.5;exitDx=0;exitDy=0;" edge="1" parent="1" source="Nxj7P1FDlBH2-qxjAzaY-23">
          <mxGeometry width="50" height="50" relative="1" as="geometry">
            <mxPoint x="560" y="160" as="sourcePoint" />
            <mxPoint x="560" y="110" as="targetPoint" />
            <Array as="points">
              <mxPoint x="560" y="260" />
            </Array>
          </mxGeometry>
        </mxCell>
        <mxCell id="JNdVRmHCv1PeEYN5Xjip-22" value="" style="endArrow=classic;html=1;rounded=0;exitX=0;exitY=0.75;exitDx=0;exitDy=0;" edge="1" parent="1" source="Nxj7P1FDlBH2-qxjAzaY-23">
          <mxGeometry width="50" height="50" relative="1" as="geometry">
            <mxPoint x="540" y="170" as="sourcePoint" />
            <mxPoint x="540" y="110" as="targetPoint" />
            <Array as="points">
              <mxPoint x="540" y="290" />
            </Array>
          </mxGeometry>
        </mxCell>
        <mxCell id="JNdVRmHCv1PeEYN5Xjip-23" value="" style="endArrow=classic;html=1;rounded=0;exitX=0.25;exitY=1;exitDx=0;exitDy=0;" edge="1" parent="1" source="Nxj7P1FDlBH2-qxjAzaY-23">
          <mxGeometry width="50" height="50" relative="1" as="geometry">
            <mxPoint x="740" y="465" as="sourcePoint" />
            <mxPoint x="640" y="465" as="targetPoint" />
            <Array as="points">
              <mxPoint x="790" y="465" />
              <mxPoint x="700" y="465" />
            </Array>
          </mxGeometry>
        </mxCell>
        <mxCell id="JNdVRmHCv1PeEYN5Xjip-24" value="" style="endArrow=classic;html=1;rounded=0;exitX=1.008;exitY=0.828;exitDx=0;exitDy=0;exitPerimeter=0;" edge="1" parent="1">
          <mxGeometry width="50" height="50" relative="1" as="geometry">
            <mxPoint x="640.0000000000001" y="499.68000000000006" as="sourcePoint" />
            <mxPoint x="828.08" y="320" as="targetPoint" />
            <Array as="points">
              <mxPoint x="828.08" y="500" />
            </Array>
          </mxGeometry>
        </mxCell>
        <mxCell id="JNdVRmHCv1PeEYN5Xjip-25" value="ACTIVE DIRECTORY" style="shape=cube;whiteSpace=wrap;html=1;boundedLbl=1;backgroundOutline=1;darkOpacity=0.05;darkOpacity2=0.1;fillColor=#dae8fc;strokeColor=#6c8ebf;" vertex="1" parent="1">
          <mxGeometry x="1160" y="5" width="160" height="105" as="geometry" />
        </mxCell>
        <mxCell id="JNdVRmHCv1PeEYN5Xjip-26" value="" style="endArrow=classic;html=1;rounded=0;entryX=0;entryY=0.25;entryDx=0;entryDy=0;exitX=1.008;exitY=0.284;exitDx=0;exitDy=0;exitPerimeter=0;" edge="1" parent="1" source="Nxj7P1FDlBH2-qxjAzaY-1" target="RLrWu1JvO4jrma6WL3sS-24">
          <mxGeometry width="50" height="50" relative="1" as="geometry">
            <mxPoint x="600" y="40" as="sourcePoint" />
            <mxPoint x="826" y="40" as="targetPoint" />
          </mxGeometry>
        </mxCell>
        <mxCell id="JNdVRmHCv1PeEYN5Xjip-27" value="" style="endArrow=classic;html=1;rounded=0;exitX=0.005;exitY=0.624;exitDx=0;exitDy=0;exitPerimeter=0;" edge="1" parent="1" source="RLrWu1JvO4jrma6WL3sS-24">
          <mxGeometry width="50" height="50" relative="1" as="geometry">
            <mxPoint x="870" y="80" as="sourcePoint" />
            <mxPoint x="600" y="80" as="targetPoint" />
            <Array as="points">
              <mxPoint x="722.24" y="80" />
            </Array>
          </mxGeometry>
        </mxCell>
        <mxCell id="JNdVRmHCv1PeEYN5Xjip-28" value="" style="endArrow=classic;html=1;rounded=0;exitX=1;exitY=0.25;exitDx=0;exitDy=0;" edge="1" parent="1" source="RLrWu1JvO4jrma6WL3sS-24">
          <mxGeometry width="50" height="50" relative="1" as="geometry">
            <mxPoint x="1018" y="34" as="sourcePoint" />
            <mxPoint x="1160" y="34.16999999999999" as="targetPoint" />
          </mxGeometry>
        </mxCell>
        <mxCell id="JNdVRmHCv1PeEYN5Xjip-29" value="" style="endArrow=classic;html=1;rounded=0;exitX=0;exitY=0.714;exitDx=0;exitDy=0;exitPerimeter=0;" edge="1" parent="1" source="JNdVRmHCv1PeEYN5Xjip-25">
          <mxGeometry width="50" height="50" relative="1" as="geometry">
            <mxPoint x="1149" y="80" as="sourcePoint" />
            <mxPoint x="955" y="80" as="targetPoint" />
          </mxGeometry>
        </mxCell>
      </root>
    </mxGraphModel>
  </diagram>
</mxfile>
